<svg width="418" height="920" fill="none" xmlns="http://www.w3.org/2000/svg"><mask id="a" style="mask-type:alpha" maskUnits="userSpaceOnUse" x="8" y="45" width="403" height="875"><path transform="rotate(-180 410 919.075)" fill="#E24B2C" d="M410 919.075H812V1793.075H410z"/></mask><g mask="url(#a)"><path transform="rotate(-180 462 1245.08)" fill="url(#b)" d="M462 1245.08H1298V2667.08H462z"/><path opacity=".47" transform="rotate(-180 410 919.075)" fill="url(#c)" d="M410 919.075H812V1819.075H410z"/></g><path d="M105.881 45.164c0 25.397-23.164 45.986-51.737 45.986h-2.407C23.164 91.15 0 70.56 0 45.164V1.071C0 .24 1.022-.274 1.824.155l12.63 6.76c23.676 12.675 53.297 12.675 76.974 0l12.629-6.76c.802-.43 1.824.084 1.824.916v44.093zM313.961 45.164c0 25.397-23.164 45.986-51.738 45.986h-2.406c-28.574 0-51.737-20.589-51.737-45.986V1.071c0-.832 1.022-1.345 1.824-.916l12.629 6.76c23.677 12.675 53.297 12.675 76.974 0l12.63-6.76c.802-.43 1.824.084 1.824.916v44.093z" fill="#E3DDD3"/><path d="M209.921 45.164c0 25.397-23.163 45.986-51.737 45.986h-2.406c-28.574 0-51.738-20.589-51.738-45.986V1.071c0-.832 1.022-1.345 1.824-.916l12.63 6.76c23.677 12.675 53.297 12.675 76.974 0l12.629-6.76c.802-.43 1.824.084 1.824.916v44.093zM418.001 45.164c0 25.397-23.164 45.986-51.738 45.986h-2.406c-28.574 0-51.738-20.589-51.738-45.986V1.071c0-.832 1.023-1.345 1.824-.916l12.63 6.76c23.677 12.675 53.297 12.675 76.974 0l12.63-6.76c.802-.43 1.824.084 1.824.916v44.093z" fill="#E3DDD3"/><circle cx="365.501" cy="72.575" r="7.5" transform="rotate(-180 365.501 72.575)" fill="#F79D09"/><circle cx="261.501" cy="72.575" r="7.5" transform="rotate(-180 261.501 72.575)" fill="#F79D09"/><circle cx="157.501" cy="72.575" r="7.5" transform="rotate(-180 157.501 72.575)" fill="#F79D09"/><circle cx="55.501" cy="72.575" r="7.5" transform="rotate(-180 55.5 72.575)" fill="#F79D09"/><defs><radialGradient id="b" cx="0" cy="0" r="1" gradientUnits="userSpaceOnUse" gradientTransform="matrix(0 711 -418 0 880 1956.08)"><stop stop-color="#E24B2C"/><stop offset="1" stop-color="#E25D40"/></radialGradient><radialGradient id="c" cx="0" cy="0" r="1" gradientUnits="userSpaceOnUse" gradientTransform="matrix(0 450 -201 0 611 1369.08)"><stop stop-color="#E24B2C"/><stop offset="1" stop-color="#E25D40"/></radialGradient></defs></svg>