<svg width="418" height="920" fill="none" xmlns="http://www.w3.org/2000/svg"><mask id="a" style="mask-type:alpha" maskUnits="userSpaceOnUse" x="8" y="0" width="402" height="874"><path fill="#E24B2C" d="M8 0H410V874H8z"/></mask><g mask="url(#a)"><path fill="url(#b)" d="M-44 -326H792V1096H-44z"/><path opacity=".47" fill="url(#c)" d="M8 0H410V900H8z"/></g><path d="M312.12 873.911c0-25.397 23.163-45.985 51.737-45.985h2.406c28.574 0 51.738 20.588 51.738 45.985v44.093c0 .832-1.022 1.346-1.824.916l-12.63-6.76c-23.677-12.675-53.297-12.675-76.974 0l-12.63 6.76c-.801.43-1.823-.084-1.823-.916v-44.093zM104.04 873.911c0-25.397 23.163-45.985 51.737-45.985h2.407c28.573 0 51.737 20.588 51.737 45.985v44.093c0 .832-1.022 1.346-1.824.916l-12.629-6.76c-23.677-12.675-53.298-12.675-76.975 0l-12.629 6.76c-.802.43-1.824-.084-1.824-.916v-44.093z" fill="#E3DDD3"/><path d="M208.079 873.911c0-25.397 23.164-45.985 51.738-45.985h2.406c28.574 0 51.737 20.588 51.737 45.985v44.093c0 .832-1.022 1.346-1.824.916l-12.629-6.76c-23.677-12.675-53.298-12.675-76.974 0l-12.63 6.76c-.802.43-1.824-.084-1.824-.916v-44.093zM0 873.911c0-25.397 23.164-45.985 51.737-45.985h2.407c28.574 0 51.737 20.588 51.737 45.985v44.093c0 .832-1.022 1.346-1.824.916l-12.63-6.76c-23.676-12.675-53.297-12.675-76.974 0l-12.629 6.76c-.802.43-1.824-.084-1.824-.916v-44.093z" fill="#E3DDD3"/><circle cx="52.5" cy="846.5" r="7.5" fill="#F79D09"/><circle cx="156.5" cy="846.5" r="7.5" fill="#F79D09"/><circle cx="260.5" cy="846.5" r="7.5" fill="#F79D09"/><circle cx="362.5" cy="846.5" r="7.5" fill="#F79D09"/><defs><radialGradient id="b" cx="0" cy="0" r="1" gradientUnits="userSpaceOnUse" gradientTransform="matrix(0 711 -418 0 374 385)"><stop stop-color="#E24B2C"/><stop offset="1" stop-color="#E25D40"/></radialGradient><radialGradient id="c" cx="0" cy="0" r="1" gradientUnits="userSpaceOnUse" gradientTransform="matrix(0 450 -201 0 209 450)"><stop stop-color="#E24B2C"/><stop offset="1" stop-color="#E25D40"/></radialGradient></defs></svg>